<svg xmlns="http://www.w3.org/2000/svg" xmlns:xlink="http://www.w3.org/1999/xlink" width="114" height="114" viewBox="0 0 114 114">
  <defs>
    <clipPath id="clip-path">
      <rect id="Rectangle_51" data-name="Rectangle 51" width="114" height="114" transform="translate(510 444)" fill="#fff" stroke="#707070" stroke-width="1"/>
    </clipPath>
  </defs>
  <g id="Groupe_de_masques_23" data-name="Groupe de masques 23" transform="translate(-510 -444)" clip-path="url(#clip-path)">
    <path id="square-whatsapp" d="M57,31.248A33.535,33.535,0,0,0,28.576,82.625l.789,1.272L25.981,96.264l12.7-3.333,1.221.738A33.45,33.45,0,0,0,56.975,98.35H57c18.474,0,33.92-15.039,33.92-33.538A33.693,33.693,0,0,0,80.716,41.1,33.281,33.281,0,0,0,57,31.248ZM76.721,79.189c-.84,2.367-4.86,4.5-6.794,4.784-3.206.483-5.7.229-12.087-2.519C47.737,77.077,41.121,66.9,40.612,66.237S36.49,60.766,36.49,55.8a11.292,11.292,0,0,1,3.537-8.423,3.671,3.671,0,0,1,2.7-1.272c.662,0,1.349,0,1.934.025.611.025,1.45-.229,2.265,1.73.84,2.01,2.85,6.972,3.1,7.481A1.781,1.781,0,0,1,50.1,57.1c-1.934,3.868-4,3.715-2.952,5.5,3.893,6.692,7.787,9.008,13.716,11.985,1.018.509,1.6.433,2.188-.254.585-.662,2.519-2.952,3.181-3.944.662-1.018,1.349-.84,2.265-.509s5.878,2.774,6.9,3.283,1.679.763,1.934,1.171A8.953,8.953,0,0,1,76.721,79.189ZM101.786,8.143H12.214A12.217,12.217,0,0,0,0,20.357v89.571a12.217,12.217,0,0,0,12.214,12.214h89.571A12.217,12.217,0,0,0,114,109.929V20.357A12.217,12.217,0,0,0,101.786,8.143Zm-44.811,97a40.317,40.317,0,0,1-19.288-4.911l-21.4,5.624L22.011,84.94a40.428,40.428,0,1,1,75.7-20.128c0,22.24-18.5,40.333-40.74,40.333Z" transform="translate(510 435.857)"/>
  </g>
</svg>
